<svg version="1.1" xmlns="http://www.w3.org/2000/svg" viewBox="0 0 416 336.04986769153226" width="416" height="336.04986769153226">
  <!-- svg-source:excalidraw -->
  
  <defs>
    <style class="style-fonts">
      @font-face {
        font-family: "Virgil";
        src: url("https://excalidraw.com/Virgil.woff2");
      }
      @font-face {
        font-family: "Cascadia";
        src: url("https://excalidraw.com/Cascadia.woff2");
      }
    </style>
    
  </defs>
  <rect x="0" y="0" width="416" height="336.04986769153226" fill="#ffffff"/><g transform="translate(38 28.204164566532256) rotate(0 -3 46)" stroke="none"><path fill="#1e1e1e" d="M 1.39,0.69 Q 1.39,0.69 0.22,2.97 -0.95,5.24 -1.40,8.30 -1.84,11.36 -2.65,15.09 -3.46,18.83 -3.79,24.32 -4.12,29.81 -4.27,35.61 -4.42,41.41 -4.49,47.90 -4.56,54.40 -4.59,61.18 -4.62,67.97 -4.63,72.57 -4.65,77.18 -4.65,80.29 -4.66,83.40 -4.62,86.55 -4.58,89.70 -4.62,89.92 -4.65,90.15 -4.76,90.35 -4.87,90.56 -5.03,90.71 -5.20,90.87 -5.41,90.97 -5.62,91.06 -5.85,91.09 -6.07,91.11 -6.30,91.06 -6.52,91.01 -6.72,90.89 -6.91,90.77 -7.06,90.60 -7.21,90.42 -7.29,90.21 -7.38,90.00 -7.39,89.77 -7.40,89.54 -7.34,89.32 -7.28,89.10 -7.15,88.91 -7.02,88.72 -6.84,88.58 -6.66,88.44 -6.44,88.37 -6.22,88.30 -5.99,88.30 -5.76,88.30 -5.55,88.37 -5.33,88.45 -5.15,88.59 -4.96,88.72 -4.84,88.91 -4.71,89.10 -4.65,89.32 -4.59,89.55 -4.60,89.77 -4.61,90.00 -4.70,90.22 -4.78,90.43 -4.93,90.60 -5.08,90.78 -5.28,90.90 -5.47,91.01 -5.70,91.06 -5.92,91.11 -6.15,91.09 -6.38,91.06 -6.58,90.96 -6.79,90.87 -6.96,90.71 -7.12,90.55 -7.23,90.35 -7.34,90.15 -7.37,89.92 -7.41,89.69 -7.41,89.69 -7.41,89.69 -7.36,86.55 -7.32,83.40 -7.31,80.29 -7.31,77.18 -7.30,72.57 -7.30,67.96 -7.28,61.16 -7.26,54.37 -7.20,47.86 -7.15,41.35 -7.02,35.49 -6.88,29.64 -6.55,23.94 -6.22,18.25 -5.46,14.59 -4.70,10.94 -4.17,7.44 -3.64,3.95 -2.52,1.62 -1.39,-0.69 -1.29,-0.85 -1.18,-1.01 -1.05,-1.14 -0.91,-1.26 -0.74,-1.35 -0.58,-1.44 -0.40,-1.49 -0.21,-1.54 -0.03,-1.55 0.15,-1.55 0.34,-1.51 0.52,-1.47 0.69,-1.38 0.86,-1.30 1.00,-1.18 1.14,-1.05 1.25,-0.90 1.36,-0.75 1.43,-0.57 1.50,-0.40 1.53,-0.21 1.56,-0.03 1.54,0.15 1.52,0.34 1.46,0.52 1.39,0.69 1.39,0.69 L 1.39,0.69 Z"/></g><g transform="translate(10 82.20416456653226) rotate(0 32 -10)" stroke="none"><path fill="#1e1e1e" d="M -0.48,-1.69 Q -0.48,-1.69 3.55,-2.78 7.59,-3.87 12.75,-5.46 17.90,-7.05 24.20,-8.31 30.50,-9.57 35.96,-11.22 41.42,-12.87 46.61,-14.71 51.81,-16.56 55.15,-17.90 58.50,-19.25 59.89,-19.92 61.29,-20.59 61.53,-20.65 61.78,-20.70 62.04,-20.68 62.29,-20.65 62.52,-20.55 62.75,-20.44 62.94,-20.27 63.12,-20.09 63.24,-19.87 63.36,-19.65 63.41,-19.40 63.45,-19.15 63.41,-18.89 63.37,-18.64 63.25,-18.42 63.14,-18.19 62.95,-18.02 62.77,-17.84 62.54,-17.73 62.31,-17.62 62.06,-17.59 61.80,-17.57 61.56,-17.62 61.31,-17.67 61.09,-17.80 60.87,-17.93 60.70,-18.12 60.54,-18.32 60.44,-18.55 60.35,-18.79 60.33,-19.04 60.32,-19.29 60.38,-19.54 60.45,-19.79 60.59,-20.00 60.73,-20.21 60.93,-20.36 61.13,-20.52 61.37,-20.60 61.61,-20.68 61.87,-20.69 62.12,-20.69 62.36,-20.61 62.61,-20.53 62.81,-20.38 63.01,-20.22 63.16,-20.01 63.30,-19.80 63.37,-19.56 63.44,-19.32 63.43,-19.06 63.42,-18.81 63.32,-18.57 63.23,-18.33 63.07,-18.14 62.90,-17.94 62.69,-17.81 62.47,-17.68 62.47,-17.68 62.47,-17.68 61.00,-17.19 59.53,-16.69 56.14,-15.30 52.75,-13.91 47.51,-12.02 42.26,-10.12 36.68,-8.39 31.10,-6.66 24.97,-5.38 18.83,-4.09 13.67,-2.41 8.50,-0.72 4.49,0.48 0.48,1.69 0.27,1.72 0.06,1.75 -0.14,1.74 -0.35,1.72 -0.55,1.65 -0.76,1.58 -0.93,1.47 -1.11,1.35 -1.26,1.20 -1.41,1.05 -1.51,0.86 -1.62,0.68 -1.68,0.48 -1.73,0.27 -1.74,0.06 -1.75,-0.14 -1.71,-0.35 -1.66,-0.56 -1.57,-0.75 -1.48,-0.94 -1.34,-1.11 -1.21,-1.27 -1.04,-1.40 -0.87,-1.52 -0.67,-1.61 -0.48,-1.69 -0.48,-1.69 L -0.48,-1.69 Z"/></g><g transform="translate(76 42.204164566532256) rotate(0 16 43)" stroke="none"><path fill="#1e1e1e" d="M 1.73,0 Q 1.73,0 1.67,3.44 1.61,6.89 1.57,12.39 1.53,17.88 0.92,23.73 0.31,29.59 0.05,35.46 -0.20,41.32 -1.49,47.96 -2.77,54.60 -3.31,58.49 -3.84,62.37 -4.08,64.59 -4.31,66.81 -4.31,68.35 -4.32,69.89 -4.33,69.94 -4.34,69.98 -4.38,70.17 -4.41,70.36 -4.49,70.54 -4.57,70.71 -4.69,70.86 -4.81,71.01 -4.96,71.13 -5.11,71.25 -5.29,71.33 -5.46,71.41 -5.65,71.44 -5.84,71.48 -6.03,71.46 -6.23,71.45 -6.41,71.39 -6.59,71.34 -6.76,71.24 -6.92,71.14 -7.06,71.00 -7.19,70.86 -7.29,70.70 -7.39,70.54 -7.45,70.35 -7.50,70.17 -7.51,69.98 -7.53,69.78 -6.20,68.11 -4.87,66.44 -3.28,64.37 -1.69,62.30 0.23,60.18 2.15,58.06 4.85,56.47 7.55,54.89 10.44,53.67 13.32,52.45 16.99,51.91 20.66,51.37 23.52,51.76 26.38,52.14 28.39,53.63 30.40,55.12 31.31,57.67 32.21,60.23 32.54,63.63 32.87,67.04 33.00,70.18 33.13,73.33 33.74,75.67 34.34,78.00 35.19,79.46 36.03,80.92 37.39,82.57 38.74,84.22 38.86,84.46 38.99,84.69 39.02,84.96 39.06,85.22 39.02,85.49 38.97,85.75 38.84,85.99 38.71,86.22 38.51,86.40 38.32,86.58 38.07,86.69 37.83,86.80 37.56,86.83 37.29,86.85 37.03,86.79 36.77,86.73 36.55,86.59 36.32,86.45 36.15,86.24 35.98,86.03 35.88,85.78 35.79,85.53 35.78,85.26 35.77,85.00 35.84,84.74 35.92,84.48 36.07,84.26 36.22,84.04 36.44,83.88 36.66,83.73 36.91,83.64 37.17,83.56 37.43,83.57 37.70,83.57 37.95,83.66 38.21,83.75 38.42,83.91 38.63,84.08 38.77,84.30 38.92,84.53 38.99,84.79 39.06,85.05 39.04,85.31 39.02,85.58 38.92,85.83 38.81,86.07 38.64,86.28 38.46,86.48 38.23,86.61 38.00,86.75 37.74,86.80 37.47,86.85 37.21,86.82 36.94,86.79 36.70,86.67 36.46,86.56 36.27,86.37 36.08,86.18 36.08,86.18 36.08,86.18 34.77,84.22 33.47,82.26 32.62,80.47 31.78,78.67 31.13,76.06 30.48,73.45 30.34,70.37 30.21,67.29 29.93,64.16 29.65,61.02 29.12,59.02 28.58,57.02 27.21,55.90 25.83,54.79 23.43,54.45 21.03,54.12 17.72,54.60 14.42,55.07 11.72,56.25 9.02,57.42 6.71,58.76 4.39,60.10 2.63,62.15 0.86,64.20 -0.80,66.53 -2.47,68.86 -3.41,69.42 -4.34,69.98 -4.38,70.17 -4.41,70.36 -4.49,70.54 -4.57,70.71 -4.69,70.86 -4.81,71.01 -4.96,71.13 -5.11,71.25 -5.29,71.33 -5.46,71.41 -5.65,71.44 -5.84,71.48 -6.03,71.46 -6.23,71.45 -6.41,71.39 -6.59,71.34 -6.76,71.24 -6.92,71.14 -7.06,71.00 -7.19,70.86 -7.29,70.70 -7.39,70.54 -7.45,70.35 -7.50,70.17 -7.51,69.98 -7.53,69.78 -7.46,69.68 -7.39,69.58 -7.20,68.06 -7.01,66.54 -6.79,64.27 -6.57,62.00 -6.04,58.04 -5.52,54.07 -4.29,47.63 -3.06,41.20 -2.84,35.25 -2.61,29.30 -2.07,23.59 -1.53,17.88 -1.57,12.39 -1.61,6.89 -1.67,3.44 -1.73,0 -1.70,-0.20 -1.68,-0.41 -1.60,-0.61 -1.53,-0.80 -1.41,-0.97 -1.29,-1.14 -1.14,-1.28 -0.98,-1.42 -0.79,-1.52 -0.61,-1.62 -0.41,-1.67 -0.20,-1.72 0.00,-1.72 0.20,-1.72 0.41,-1.67 0.61,-1.62 0.79,-1.52 0.98,-1.42 1.14,-1.28 1.29,-1.14 1.41,-0.97 1.53,-0.80 1.60,-0.60 1.68,-0.41 1.70,-0.20 1.73,0.00 1.73,0.00 L 1.73,0 Z"/></g><g transform="translate(128 84.20416456653226) rotate(0 -2 12)" stroke="none"><path fill="#1e1e1e" d="M 1.90,0.63 Q 1.90,0.63 0.67,4.05 -0.56,7.47 -1.08,10.50 -1.60,13.53 -1.86,15.98 -2.11,18.42 -2.13,20.74 -2.16,23.06 -2.22,23.34 -2.28,23.62 -2.43,23.87 -2.58,24.12 -2.80,24.31 -3.02,24.49 -3.29,24.60 -3.56,24.71 -3.84,24.72 -4.13,24.74 -4.41,24.66 -4.69,24.58 -4.93,24.42 -5.17,24.26 -5.34,24.03 -5.52,23.80 -5.61,23.53 -5.70,23.25 -5.70,22.97 -5.70,22.68 -5.61,22.40 -5.52,22.13 -5.34,21.90 -5.17,21.67 -4.93,21.51 -4.69,21.34 -4.41,21.27 -4.13,21.19 -3.84,21.21 -3.56,21.22 -3.29,21.33 -3.02,21.43 -2.80,21.62 -2.58,21.81 -2.43,22.06 -2.28,22.30 -2.22,22.59 -2.16,22.87 -2.19,23.15 -2.22,23.44 -2.34,23.70 -2.46,23.97 -2.66,24.18 -2.86,24.39 -3.11,24.52 -3.37,24.66 -3.65,24.70 -3.94,24.75 -4.22,24.70 -4.51,24.66 -4.76,24.52 -5.02,24.39 -5.22,24.18 -5.42,23.97 -5.54,23.70 -5.66,23.44 -5.69,23.16 -5.72,22.87 -5.72,22.87 -5.72,22.87 -5.50,20.51 -5.27,18.16 -5.10,15.59 -4.94,13.02 -4.48,9.67 -4.03,6.32 -2.97,2.84 -1.90,-0.63 -1.80,-0.85 -1.70,-1.07 -1.54,-1.26 -1.39,-1.45 -1.20,-1.59 -1.00,-1.74 -0.78,-1.83 -0.56,-1.93 -0.32,-1.97 -0.08,-2.01 0.15,-1.99 0.40,-1.97 0.63,-1.89 0.86,-1.81 1.06,-1.68 1.27,-1.55 1.44,-1.38 1.60,-1.21 1.73,-0.99 1.85,-0.78 1.91,-0.55 1.98,-0.32 1.99,-0.08 2.00,0.16 1.95,0.39 1.90,0.63 1.90,0.63 L 1.90,0.63 Z"/></g><g transform="translate(130 48.204164566532256) rotate(0 3 -3)" stroke="none"><path fill="#1e1e1e" d="M -1.80,-1.20 Q -1.80,-1.20 -0.35,-3.01 1.10,-4.82 1.87,-4.88 2.65,-4.94 2.82,-5.14 2.99,-5.33 3.19,-5.48 3.40,-5.63 3.64,-5.72 3.88,-5.82 4.13,-5.85 4.39,-5.89 4.64,-5.86 4.90,-5.84 5.14,-5.75 5.38,-5.66 5.59,-5.52 5.81,-5.38 5.98,-5.19 6.15,-5.00 6.28,-4.77 6.40,-4.55 6.47,-4.30 6.53,-4.05 6.53,-3.80 6.54,-3.54 6.48,-3.29 6.42,-3.04 6.31,-2.81 6.19,-2.58 4.68,-1.33 3.17,-0.07 2.90,0.09 2.62,0.25 2.30,0.32 1.99,0.39 1.66,0.36 1.34,0.32 1.05,0.19 0.76,0.05 0.52,-0.16 0.28,-0.38 0.13,-0.67 -0.01,-0.96 -0.06,-1.27 -0.11,-1.59 -0.06,-1.91 -0.01,-2.23 0.13,-2.52 0.28,-2.81 0.52,-3.03 0.75,-3.25 1.05,-3.39 1.34,-3.52 1.66,-3.56 1.98,-3.59 2.30,-3.52 2.62,-3.45 2.89,-3.29 3.17,-3.12 3.38,-2.87 3.59,-2.63 3.71,-2.33 3.83,-2.03 3.85,-1.70 3.87,-1.38 3.78,-1.07 3.69,-0.76 3.51,-0.49 3.33,-0.22 3.07,-0.02 2.81,0.16 2.51,0.26 2.20,0.37 1.88,0.37 1.55,0.37 1.25,0.27 0.94,0.16 0.68,-0.02 0.42,-0.22 0.24,-0.49 0.06,-0.75 -0.02,-1.07 -0.10,-1.38 -0.08,-1.70 -0.07,-2.02 0.04,-2.33 0.16,-2.63 0.37,-2.87 0.58,-3.12 0.58,-3.12 0.58,-3.12 1.62,-4.03 2.65,-4.94 2.82,-5.14 2.99,-5.33 3.19,-5.48 3.40,-5.63 3.64,-5.72 3.88,-5.82 4.13,-5.85 4.39,-5.89 4.64,-5.86 4.90,-5.84 5.14,-5.75 5.38,-5.66 5.59,-5.52 5.81,-5.38 5.98,-5.19 6.15,-5.00 6.28,-4.77 6.40,-4.55 6.47,-4.30 6.53,-4.05 6.53,-3.80 6.54,-3.54 6.48,-3.29 6.42,-3.04 6.31,-2.81 6.19,-2.58 4.84,-2.32 3.49,-2.07 2.65,-0.43 1.80,1.20 1.63,1.40 1.46,1.60 1.25,1.75 1.04,1.90 0.79,2.00 0.55,2.10 0.29,2.13 0.03,2.17 -0.22,2.14 -0.48,2.11 -0.73,2.02 -0.97,1.94 -1.19,1.79 -1.41,1.64 -1.59,1.45 -1.76,1.26 -1.89,1.03 -2.01,0.80 -2.08,0.54 -2.15,0.29 -2.15,0.03 -2.16,-0.22 -2.10,-0.48 -2.04,-0.73 -1.92,-0.97 -1.80,-1.20 -1.80,-1.20 L -1.80,-1.20 Z"/></g><g transform="translate(180 78.20416456653226) rotate(0 -18 16)" stroke="none"><path fill="#1e1e1e" d="M 0,1.73 Q 0,1.73 -4.02,1.67 -8.04,1.62 -10.33,1.58 -12.62,1.53 -15.24,1.48 -17.87,1.43 -19.26,2.47 -20.64,3.51 -21.81,4.53 -22.98,5.55 -23.27,6.86 -23.57,8.18 -23.76,9.80 -23.94,11.43 -22.98,14.18 -22.02,16.92 -21.06,19.35 -20.09,21.78 -19.56,23.47 -19.04,25.17 -18.75,26.60 -18.47,28.02 -19.14,29.76 -19.80,31.51 -21.56,32.39 -23.31,33.27 -25.26,33.51 -27.20,33.75 -29.20,33.80 -31.19,33.84 -34.26,31.79 -37.33,29.74 -37.48,29.43 -37.64,29.13 -37.68,28.79 -37.73,28.46 -37.67,28.12 -37.61,27.79 -37.44,27.49 -37.28,27.19 -37.02,26.96 -36.77,26.73 -36.46,26.60 -36.15,26.46 -35.81,26.43 -35.47,26.40 -35.14,26.48 -34.81,26.56 -34.52,26.74 -34.23,26.93 -34.02,27.19 -33.80,27.45 -33.68,27.77 -33.56,28.09 -33.55,28.43 -33.54,28.77 -33.64,29.10 -33.74,29.42 -33.93,29.70 -34.13,29.98 -34.41,30.18 -34.68,30.38 -35.01,30.48 -35.33,30.58 -35.67,30.58 -36.01,30.57 -36.33,30.45 -36.65,30.34 -36.92,30.13 -37.19,29.91 -37.37,29.63 -37.56,29.34 -37.64,29.01 -37.72,28.68 -37.70,28.34 -37.67,28.00 -37.54,27.69 -37.41,27.38 -37.18,27.12 -36.96,26.87 -36.66,26.70 -36.36,26.53 -36.03,26.46 -35.70,26.40 -35.36,26.44 -35.02,26.49 -34.72,26.63 -34.41,26.78 -34.17,27.02 -33.93,27.26 -33.93,27.26 -33.93,27.26 -32.58,28.58 -31.23,29.90 -29.45,29.77 -27.68,29.65 -26.17,29.48 -24.66,29.32 -23.36,28.78 -22.07,28.24 -22.15,27.13 -22.24,26.03 -22.58,24.49 -22.92,22.95 -24.00,20.46 -25.07,17.97 -26.21,14.56 -27.35,11.15 -27.06,9.11 -26.78,7.08 -25.96,5.18 -25.15,3.29 -23.70,2.19 -22.26,1.08 -20.20,-0.17 -18.15,-1.43 -15.38,-1.48 -12.62,-1.53 -10.33,-1.58 -8.04,-1.62 -4.02,-1.67 0,-1.73 0.20,-1.71 0.41,-1.68 0.61,-1.61 0.80,-1.53 0.97,-1.41 1.15,-1.30 1.29,-1.14 1.42,-0.98 1.52,-0.80 1.62,-0.61 1.67,-0.41 1.72,-0.20 1.72,0.00 1.72,0.20 1.67,0.41 1.62,0.61 1.52,0.80 1.42,0.98 1.29,1.14 1.15,1.30 0.97,1.41 0.80,1.53 0.61,1.61 0.41,1.68 0.20,1.71 -0.00,1.73 -0.00,1.73 L 0,1.73 Z"/></g><g transform="translate(234 74.20416456653226) rotate(0 1 21)" stroke="none"><path fill="#1e1e1e" d="M 1.82,-0.30 Q 1.82,-0.30 2.32,3.15 2.82,6.62 3.03,10.47 3.23,14.33 2.71,17.81 2.20,21.29 1.97,23.81 1.75,26.32 1.65,29.10 1.54,31.88 1.49,34.21 1.44,36.55 1.53,38.79 1.61,41.02 1.57,41.28 1.52,41.54 1.40,41.76 1.28,41.99 1.08,42.17 0.89,42.35 0.66,42.45 0.42,42.56 0.16,42.59 -0.09,42.61 -0.34,42.55 -0.60,42.49 -0.82,42.36 -1.04,42.22 -1.20,42.02 -1.37,41.82 -1.46,41.58 -1.56,41.34 -1.57,41.08 -1.58,40.82 -1.51,40.57 -1.44,40.32 -1.29,40.10 -1.14,39.89 -0.93,39.73 -0.72,39.58 -0.48,39.50 -0.23,39.42 0.02,39.42 0.28,39.42 0.53,39.51 0.77,39.59 0.98,39.75 1.18,39.91 1.33,40.13 1.47,40.35 1.54,40.60 1.60,40.85 1.59,41.11 1.57,41.37 1.47,41.61 1.37,41.85 1.20,42.05 1.03,42.24 0.81,42.37 0.58,42.51 0.33,42.56 0.08,42.61 -0.17,42.58 -0.43,42.55 -0.67,42.44 -0.90,42.33 -1.09,42.15 -1.28,41.97 -1.39,41.74 -1.51,41.51 -1.55,41.25 -1.59,40.99 -1.59,40.99 -1.59,40.99 -1.46,38.75 -1.33,36.51 -1.31,34.15 -1.29,31.79 -1.22,28.94 -1.16,26.09 -0.98,23.48 -0.80,20.87 -0.38,17.69 0.04,14.52 -0.24,10.85 -0.52,7.17 -1.17,3.74 -1.82,0.30 -1.83,0.08 -1.84,-0.14 -1.79,-0.35 -1.75,-0.57 -1.65,-0.77 -1.56,-0.98 -1.42,-1.15 -1.28,-1.32 -1.10,-1.46 -0.92,-1.59 -0.72,-1.68 -0.52,-1.77 -0.30,-1.80 -0.08,-1.84 0.14,-1.82 0.36,-1.81 0.57,-1.74 0.78,-1.67 0.97,-1.55 1.16,-1.43 1.31,-1.27 1.47,-1.11 1.58,-0.92 1.69,-0.73 1.75,-0.51 1.82,-0.30 1.82,-0.30 L 1.82,-0.30 Z"/></g><g transform="translate(250 42.204164566532256) rotate(0 3 -1)" stroke="none"><path fill="#1e1e1e" d="M 0,-2.26 Q 0,-2.26 0.73,-2.31 1.46,-2.37 1.75,-2.34 2.03,-2.30 2.30,-2.20 2.57,-2.10 2.80,-1.94 3.04,-1.77 3.23,-1.56 3.42,-1.35 3.55,-1.09 3.68,-0.84 3.75,-0.56 3.82,-0.28 3.82,0.00 3.82,0.28 3.75,0.56 3.68,0.84 3.55,1.09 3.42,1.35 3.23,1.56 3.04,1.77 2.80,1.94 2.57,2.10 2.30,2.20 2.03,2.30 1.75,2.34 1.46,2.37 1.08,2.31 0.70,2.25 0.36,2.07 0.02,1.89 -0.23,1.61 -0.50,1.33 -0.66,0.98 -0.82,0.63 -0.86,0.25 -0.90,-0.12 -0.82,-0.50 -0.74,-0.88 -0.54,-1.20 -0.34,-1.53 -0.05,-1.78 0.24,-2.03 0.59,-2.17 0.95,-2.32 1.33,-2.34 1.72,-2.36 2.09,-2.26 2.46,-2.15 2.78,-1.94 3.10,-1.72 3.33,-1.41 3.56,-1.11 3.68,-0.74 3.81,-0.38 3.81,0.00 3.81,0.38 3.68,0.74 3.56,1.11 3.33,1.42 3.10,1.72 2.78,1.94 2.46,2.15 2.09,2.26 1.72,2.36 1.33,2.34 0.95,2.32 0.59,2.17 0.24,2.03 -0.05,1.78 -0.34,1.53 -0.54,1.20 -0.74,0.87 -0.82,0.50 -0.90,0.12 -0.86,-0.25 -0.82,-0.63 -0.66,-0.98 -0.50,-1.33 -0.23,-1.61 0.02,-1.89 0.36,-2.07 0.70,-2.25 1.08,-2.31 1.46,-2.37 1.46,-2.37 1.46,-2.37 1.75,-2.34 2.03,-2.30 2.30,-2.20 2.57,-2.10 2.80,-1.94 3.04,-1.77 3.23,-1.56 3.42,-1.35 3.55,-1.09 3.68,-0.84 3.75,-0.56 3.82,-0.28 3.82,-0.00 3.82,0.28 3.75,0.56 3.68,0.84 3.55,1.09 3.42,1.35 3.23,1.56 3.04,1.77 2.80,1.94 2.57,2.10 2.30,2.20 2.03,2.30 1.75,2.34 1.46,2.37 0.73,2.31 0,2.26 -0.27,2.22 -0.54,2.19 -0.79,2.09 -1.05,2.00 -1.27,1.84 -1.49,1.69 -1.67,1.48 -1.86,1.28 -1.98,1.04 -2.11,0.80 -2.17,0.53 -2.24,0.27 -2.24,-0.00 -2.24,-0.27 -2.17,-0.53 -2.11,-0.80 -1.98,-1.04 -1.86,-1.28 -1.67,-1.48 -1.49,-1.69 -1.27,-1.84 -1.05,-2.00 -0.79,-2.09 -0.54,-2.19 -0.27,-2.22 0.00,-2.26 0.00,-2.26 L 0,-2.26 Z"/></g><g transform="translate(302 84.20416456653226) rotate(0 -16 14)" stroke="none"><path fill="#1e1e1e" d="M -0.61,1.52 Q -0.61,1.52 -3.46,0.33 -6.32,-0.85 -8.71,-1.96 -11.10,-3.06 -13.19,-4.11 -15.28,-5.15 -15.57,-3.20 -15.86,-1.25 -15.49,1.24 -15.11,3.74 -14.39,8.34 -13.67,12.95 -12.80,16.58 -11.94,20.22 -11.56,23.00 -11.18,25.79 -11.03,28.16 -10.87,30.53 -11.45,32.49 -12.03,34.45 -13.64,35.51 -15.26,36.56 -17.84,36.86 -20.42,37.16 -22.84,36.64 -25.26,36.11 -27.05,34.61 -28.83,33.11 -30.10,31.98 -31.38,30.86 -32.34,29.15 -33.31,27.45 -33.39,27.17 -33.47,26.89 -33.46,26.59 -33.45,26.30 -33.35,26.03 -33.24,25.75 -33.06,25.53 -32.87,25.30 -32.62,25.14 -32.37,24.99 -32.09,24.92 -31.80,24.85 -31.51,24.88 -31.22,24.91 -30.95,25.03 -30.68,25.15 -30.46,25.34 -30.25,25.54 -30.11,25.80 -29.96,26.06 -29.91,26.35 -29.86,26.63 -29.90,26.92 -29.95,27.21 -30.08,27.48 -30.21,27.74 -30.42,27.94 -30.63,28.15 -30.90,28.27 -31.16,28.40 -31.45,28.44 -31.74,28.47 -32.03,28.42 -32.32,28.36 -32.57,28.21 -32.83,28.06 -33.02,27.84 -33.21,27.62 -33.33,27.35 -33.44,27.08 -33.46,26.79 -33.48,26.49 -33.41,26.21 -33.33,25.93 -33.17,25.68 -33.01,25.44 -32.78,25.25 -32.55,25.07 -32.27,24.98 -31.99,24.88 -31.70,24.87 -31.41,24.87 -31.13,24.96 -30.85,25.05 -30.61,25.22 -30.38,25.39 -30.21,25.64 -30.04,25.88 -30.04,25.88 -30.04,25.88 -29.55,27.20 -29.05,28.52 -27.92,29.69 -26.78,30.85 -25.61,32.04 -24.43,33.23 -22.59,33.61 -20.75,34.00 -18.72,33.74 -16.69,33.48 -15.58,33.21 -14.47,32.94 -14.03,31.79 -13.59,30.65 -13.76,28.41 -13.93,26.17 -14.31,23.53 -14.69,20.88 -15.61,17.15 -16.54,13.41 -17.31,8.80 -18.09,4.19 -18.53,1.23 -18.98,-1.72 -18.42,-4.31 -17.86,-6.90 -16.09,-7.35 -14.33,-7.80 -12.10,-6.79 -9.88,-5.78 -7.52,-4.76 -5.17,-3.74 -2.28,-2.63 0.61,-1.52 0.78,-1.43 0.95,-1.33 1.10,-1.20 1.25,-1.06 1.35,-0.90 1.46,-0.73 1.53,-0.55 1.60,-0.36 1.62,-0.16 1.64,0.02 1.61,0.22 1.58,0.42 1.51,0.60 1.44,0.79 1.32,0.95 1.21,1.11 1.06,1.24 0.90,1.36 0.73,1.45 0.55,1.54 0.36,1.59 0.16,1.63 -0.02,1.63 -0.22,1.62 -0.41,1.57 -0.61,1.52 -0.61,1.52 L -0.61,1.52 Z"/></g><g transform="translate(388 88.20416456653226) rotate(0 -1 24)" stroke="none"><path fill="#1e1e1e" d="M 0.99,1.99 Q 0.99,1.99 -1.35,3.03 -3.70,4.07 -5.72,5.54 -7.75,7.01 -10.44,8.82 -13.13,10.63 -14.07,11.86 -15.00,13.09 -16.03,14.30 -17.06,15.51 -17.34,17.06 -17.62,18.61 -15.76,18.97 -13.90,19.34 -12.76,19.38 -11.62,19.42 -9.46,19.60 -7.29,19.78 -5.45,19.37 -3.60,18.95 -1.43,18.75 0.74,18.56 1.89,17.92 3.05,17.28 4.06,16.47 5.06,15.65 6.61,14.63 8.15,13.61 9.37,13.90 10.59,14.19 11.67,17.03 12.74,19.88 13.02,22.81 13.30,25.74 13.93,28.53 14.56,31.33 15.36,33.63 16.17,35.94 17.07,38.07 17.97,40.21 18.70,43.29 19.44,46.37 19.45,46.64 19.45,46.92 19.37,47.19 19.29,47.46 19.13,47.69 18.97,47.91 18.74,48.08 18.51,48.24 18.25,48.32 17.98,48.41 17.70,48.40 17.42,48.39 17.16,48.30 16.90,48.20 16.68,48.03 16.46,47.85 16.31,47.62 16.16,47.38 16.09,47.11 16.02,46.84 16.04,46.56 16.06,46.28 16.17,46.03 16.28,45.77 16.47,45.56 16.66,45.35 16.90,45.21 17.14,45.08 17.42,45.02 17.69,44.97 17.97,45.01 18.24,45.04 18.50,45.17 18.75,45.29 18.94,45.49 19.14,45.68 19.27,45.93 19.39,46.18 19.43,46.46 19.47,46.74 19.42,47.01 19.37,47.29 19.23,47.53 19.09,47.77 18.88,47.96 18.68,48.15 18.42,48.26 18.16,48.37 17.88,48.39 17.61,48.42 17.33,48.35 17.06,48.28 16.83,48.13 16.59,47.98 16.42,47.77 16.24,47.55 16.14,47.29 16.05,47.03 16.05,47.03 16.05,47.03 15.63,44.21 15.22,41.40 14.22,39.21 13.22,37.03 12.27,34.58 11.32,32.13 10.52,29.15 9.73,26.17 9.35,23.63 8.98,21.09 8.19,19.99 7.41,18.89 6.04,19.80 4.67,20.71 2.94,21.42 1.21,22.14 -0.69,22.42 -2.60,22.70 -4.96,23.40 -7.31,24.11 -9.62,24.22 -11.94,24.34 -13.21,24.22 -14.48,24.11 -16.37,23.80 -18.25,23.49 -19.43,22.59 -20.60,21.69 -21.21,20.02 -21.81,18.35 -21.50,17.00 -21.20,15.65 -20.51,14.36 -19.83,13.08 -18.76,11.98 -17.69,10.88 -16.38,9.39 -15.08,7.91 -12.52,6.02 -9.95,4.14 -7.72,2.33 -5.49,0.52 -3.24,-0.73 -0.99,-1.99 -0.74,-2.08 -0.49,-2.17 -0.22,-2.20 0.04,-2.23 0.31,-2.19 0.57,-2.15 0.82,-2.05 1.07,-1.95 1.29,-1.79 1.51,-1.64 1.68,-1.43 1.86,-1.23 1.98,-0.99 2.10,-0.75 2.16,-0.48 2.22,-0.22 2.21,0.04 2.21,0.31 2.14,0.57 2.07,0.83 1.94,1.06 1.81,1.30 1.62,1.50 1.44,1.69 1.22,1.84 0.99,1.99 0.99,1.99 L 0.99,1.99 Z"/></g><g transform="translate(72 190.20416456653226) rotate(0 1 25)" stroke="none"><path fill="#1e1e1e" d="M 1.79,0 Q 1.79,0 1.73,2.3 1.66,4.6 1.61,8.45 1.56,12.30 1.53,17.39 1.49,22.47 1.47,28.09 1.44,33.70 1.99,37.12 2.54,40.54 3.01,44.36 3.49,48.18 3.47,48.44 3.45,48.71 3.35,48.96 3.24,49.20 3.07,49.41 2.89,49.61 2.66,49.74 2.43,49.87 2.17,49.93 1.90,49.98 1.64,49.95 1.37,49.91 1.13,49.80 0.89,49.68 0.70,49.49 0.51,49.31 0.39,49.07 0.27,48.83 0.23,48.57 0.19,48.30 0.24,48.04 0.28,47.77 0.41,47.54 0.54,47.31 0.74,47.13 0.94,46.94 1.18,46.84 1.43,46.73 1.69,46.70 1.96,46.68 2.22,46.74 2.48,46.80 2.71,46.94 2.93,47.09 3.10,47.29 3.27,47.50 3.37,47.75 3.46,48.00 3.47,48.27 3.48,48.53 3.41,48.79 3.33,49.05 3.18,49.27 3.02,49.49 2.81,49.64 2.59,49.80 2.34,49.88 2.08,49.96 1.81,49.96 1.55,49.96 1.29,49.87 1.04,49.78 0.83,49.61 0.62,49.45 0.48,49.22 0.33,49.00 0.26,48.74 0.20,48.48 0.20,48.48 0.20,48.48 -0.02,44.74 -0.24,41.00 -0.84,37.35 -1.44,33.70 -1.47,28.09 -1.49,22.47 -1.53,17.39 -1.56,12.30 -1.61,8.45 -1.66,4.6 -1.73,2.3 -1.79,0 -1.76,-0.21 -1.74,-0.42 -1.66,-0.63 -1.59,-0.83 -1.46,-1.01 -1.34,-1.19 -1.18,-1.33 -1.02,-1.47 -0.82,-1.57 -0.63,-1.67 -0.42,-1.73 -0.21,-1.78 0.00,-1.78 0.21,-1.78 0.42,-1.73 0.63,-1.67 0.82,-1.57 1.02,-1.47 1.18,-1.33 1.34,-1.19 1.46,-1.01 1.59,-0.83 1.66,-0.63 1.74,-0.42 1.76,-0.21 1.79,0.00 1.79,0.00 L 1.79,0 Z"/></g><g transform="translate(54 224.20416456653226) rotate(0 21 -2)" stroke="none"><path fill="#1e1e1e" d="M -0.50,-1.75 Q -0.50,-1.75 3.54,-2.83 7.59,-3.92 11.73,-4.38 15.87,-4.84 19.94,-5.02 24.00,-5.20 26.87,-5.26 29.73,-5.32 34.75,-5.47 39.77,-5.61 40.03,-5.57 40.30,-5.53 40.53,-5.41 40.77,-5.29 40.95,-5.10 41.14,-4.91 41.25,-4.67 41.37,-4.43 41.40,-4.16 41.43,-3.90 41.38,-3.64 41.32,-3.38 41.19,-3.15 41.05,-2.92 40.85,-2.75 40.65,-2.57 40.40,-2.47 40.16,-2.37 39.89,-2.35 39.63,-2.34 39.37,-2.40 39.11,-2.47 38.89,-2.62 38.67,-2.77 38.51,-2.98 38.34,-3.19 38.26,-3.44 38.17,-3.69 38.17,-3.95 38.16,-4.22 38.25,-4.47 38.33,-4.73 38.49,-4.94 38.65,-5.15 38.86,-5.30 39.08,-5.46 39.34,-5.53 39.59,-5.60 39.86,-5.59 40.12,-5.58 40.37,-5.48 40.62,-5.39 40.83,-5.22 41.03,-5.05 41.17,-4.82 41.31,-4.60 41.37,-4.34 41.43,-4.08 41.40,-3.81 41.38,-3.55 41.27,-3.31 41.16,-3.06 40.98,-2.87 40.80,-2.67 40.56,-2.55 40.33,-2.42 40.07,-2.37 39.81,-2.33 39.81,-2.33 39.81,-2.33 34.82,-2.37 29.82,-2.41 26.99,-2.29 24.15,-2.18 20.21,-1.94 16.26,-1.70 12.38,-1.19 8.50,-0.67 4.50,0.53 0.50,1.75 0.28,1.78 0.06,1.81 -0.15,1.80 -0.37,1.78 -0.57,1.71 -0.78,1.64 -0.97,1.52 -1.15,1.40 -1.30,1.24 -1.45,1.08 -1.56,0.89 -1.67,0.70 -1.73,0.49 -1.79,0.28 -1.80,0.06 -1.81,-0.15 -1.77,-0.36 -1.72,-0.58 -1.63,-0.78 -1.53,-0.97 -1.39,-1.14 -1.25,-1.31 -1.08,-1.44 -0.90,-1.58 -0.70,-1.66 -0.50,-1.75 -0.50,-1.75 L -0.50,-1.75 Z"/></g><g transform="translate(98 220.20416456653226) rotate(0 5 5)" stroke="none"><path fill="#1e1e1e" d="M 0.87,-1.75 Q 0.87,-1.75 3.13,-0.52 5.38,0.69 7.23,1.18 9.07,1.66 11.31,0.80 13.55,-0.06 14.36,-0.93 15.17,-1.81 14.29,-3.31 13.41,-4.81 11.89,-5.15 10.37,-5.49 8.80,-5.14 7.24,-4.79 4.89,-3.61 2.54,-2.44 0.31,-1.38 -1.90,-0.32 -3.19,1.62 -4.49,3.57 -5.06,5.46 -5.64,7.34 -5.93,9.12 -6.22,10.89 -5.26,11.90 -4.30,12.91 -2.40,13.91 -0.50,14.92 3.86,15.46 8.23,16.00 8.50,16.09 8.76,16.17 8.98,16.34 9.19,16.50 9.35,16.73 9.51,16.96 9.58,17.22 9.66,17.48 9.64,17.76 9.63,18.03 9.53,18.29 9.43,18.54 9.25,18.75 9.08,18.96 8.84,19.11 8.61,19.25 8.34,19.31 8.08,19.37 7.80,19.34 7.53,19.31 7.28,19.20 7.03,19.09 6.83,18.90 6.63,18.71 6.50,18.47 6.37,18.23 6.32,17.96 6.28,17.69 6.32,17.42 6.36,17.15 6.49,16.90 6.62,16.66 6.81,16.47 7.01,16.28 7.26,16.16 7.51,16.05 7.78,16.02 8.05,15.98 8.32,16.04 8.59,16.10 8.83,16.24 9.06,16.38 9.24,16.59 9.42,16.79 9.52,17.05 9.63,17.30 9.64,17.58 9.66,17.85 9.59,18.11 9.52,18.38 9.36,18.61 9.21,18.84 8.99,19.00 8.78,19.17 8.52,19.26 8.26,19.35 7.98,19.35 7.71,19.35 7.71,19.35 7.71,19.35 2.91,18.46 -1.88,17.56 -4.31,16.19 -6.74,14.82 -7.85,12.95 -8.96,11.07 -8.70,8.78 -8.43,6.48 -7.72,4.18 -7.00,1.89 -5.24,-0.57 -3.49,-3.03 -1.25,-4.24 0.98,-5.45 3.73,-6.91 6.47,-8.37 8.78,-8.81 11.08,-9.24 13.25,-8.74 15.42,-8.23 17.27,-6.89 19.11,-5.56 19.07,-3.64 19.03,-1.71 18.27,-0.50 17.52,0.70 16.09,1.77 14.67,2.84 11.65,3.86 8.63,4.88 6.22,4.39 3.81,3.90 1.46,2.82 -0.87,1.75 -1.07,1.62 -1.27,1.49 -1.43,1.31 -1.59,1.14 -1.70,0.93 -1.81,0.73 -1.88,0.50 -1.94,0.27 -1.94,0.03 -1.95,-0.19 -1.89,-0.42 -1.84,-0.65 -1.74,-0.87 -1.63,-1.08 -1.48,-1.26 -1.32,-1.44 -1.13,-1.58 -0.94,-1.71 -0.72,-1.80 -0.50,-1.89 -0.27,-1.92 -0.03,-1.96 0.19,-1.93 0.43,-1.91 0.65,-1.83 0.87,-1.75 0.87,-1.75 L 0.87,-1.75 Z"/></g><g transform="translate(158 220.20416456653226) rotate(0 -20 9)" stroke="none"><path fill="#1e1e1e" d="M -0.81,1.62 Q -0.81,1.62 -4.22,-0.16 -7.64,-1.94 -10.10,-2.67 -12.55,-3.39 -14.70,-3.72 -16.86,-4.04 -18.20,-4.14 -19.54,-4.23 -19.59,-2.93 -19.63,-1.63 -19.82,0.51 -20.01,2.66 -19.57,5.17 -19.12,7.67 -18.40,9.88 -17.68,12.08 -17.34,14.35 -17.01,16.61 -16.78,18.18 -16.55,19.75 -17.10,21.42 -17.65,23.09 -18.73,24.04 -19.81,24.99 -22.28,25.26 -24.75,25.54 -26.85,25.58 -28.94,25.63 -31.24,24.99 -33.54,24.35 -35.28,22.78 -37.02,21.21 -38.37,19.51 -39.72,17.81 -39.05,15.66 -38.39,13.52 -36.07,12.09 -33.76,10.67 -33.45,10.58 -33.15,10.49 -32.83,10.50 -32.51,10.51 -32.21,10.62 -31.92,10.73 -31.67,10.93 -31.42,11.13 -31.25,11.40 -31.08,11.67 -31.01,11.97 -30.93,12.28 -30.96,12.60 -30.99,12.92 -31.11,13.21 -31.24,13.50 -31.45,13.74 -31.67,13.97 -31.94,14.13 -32.22,14.28 -32.53,14.34 -32.85,14.40 -33.16,14.35 -33.48,14.31 -33.76,14.17 -34.04,14.02 -34.27,13.80 -34.49,13.57 -34.63,13.29 -34.77,13.00 -34.81,12.69 -34.85,12.37 -34.79,12.06 -34.73,11.75 -34.57,11.47 -34.42,11.20 -34.18,10.98 -33.94,10.77 -33.65,10.65 -33.36,10.52 -33.04,10.50 -32.72,10.48 -32.41,10.55 -32.10,10.63 -31.84,10.81 -31.57,10.98 -31.37,11.23 -31.17,11.48 -31.07,11.77 -30.96,12.07 -30.95,12.39 -30.94,12.71 -31.04,13.01 -31.13,13.32 -31.32,13.57 -31.51,13.83 -31.77,14.01 -32.03,14.20 -32.03,14.20 -32.03,14.20 -33.77,14.76 -35.52,15.33 -36.15,16.47 -36.78,17.61 -35.76,18.23 -34.74,18.85 -33.62,20.04 -32.50,21.22 -30.78,21.66 -29.06,22.09 -27.10,21.95 -25.14,21.81 -23.49,21.65 -21.83,21.49 -20.85,20.68 -19.87,19.87 -19.93,18.48 -19.98,17.09 -20.33,15.10 -20.67,13.11 -21.54,10.71 -22.42,8.32 -23.02,5.41 -23.63,2.50 -23.59,0.04 -23.54,-2.41 -22.95,-4.19 -22.35,-5.97 -21.13,-6.67 -19.90,-7.37 -18.17,-7.20 -16.45,-7.03 -14.07,-6.73 -11.70,-6.43 -8.93,-5.69 -6.15,-4.95 -2.67,-3.28 0.81,-1.62 0.99,-1.49 1.17,-1.37 1.32,-1.21 1.47,-1.05 1.57,-0.86 1.68,-0.67 1.73,-0.46 1.79,-0.25 1.79,-0.03 1.80,0.18 1.75,0.39 1.70,0.60 1.60,0.80 1.51,0.99 1.36,1.16 1.22,1.33 1.05,1.45 0.87,1.58 0.67,1.66 0.46,1.74 0.25,1.78 0.03,1.81 -0.18,1.78 -0.39,1.76 -0.60,1.69 -0.81,1.62 -0.81,1.62 L -0.81,1.62 Z"/></g><g transform="translate(196 182.20416456653226) rotate(0 -6 29)" stroke="none"><path fill="#1e1e1e" d="M 1.79,0.35 Q 1.79,0.35 1.15,3.21 0.51,6.07 0.23,10.62 -0.05,15.17 -0.19,19.43 -0.33,23.70 -0.98,27.91 -1.64,32.12 -1.91,36.11 -2.19,40.10 -2.90,43.64 -3.62,47.17 -3.92,49.75 -4.22,52.34 -4.91,53.76 -5.60,55.19 -5.95,56.33 -6.30,57.46 -8.42,58.52 -10.54,59.58 -10.86,59.63 -11.17,59.69 -11.49,59.64 -11.80,59.59 -12.09,59.45 -12.37,59.30 -12.59,59.07 -12.82,58.84 -12.95,58.55 -13.09,58.26 -13.13,57.95 -13.17,57.63 -13.10,57.32 -13.03,57.00 -12.87,56.73 -12.71,56.45 -12.47,56.24 -12.23,56.03 -11.93,55.91 -11.64,55.79 -11.32,55.77 -11.00,55.75 -10.69,55.83 -10.38,55.92 -10.12,56.09 -9.85,56.27 -9.65,56.52 -9.46,56.77 -9.35,57.07 -9.25,57.38 -9.25,57.70 -9.24,58.01 -9.34,58.32 -9.44,58.62 -9.63,58.88 -9.82,59.13 -10.08,59.32 -10.35,59.50 -10.65,59.59 -10.96,59.68 -11.28,59.66 -11.60,59.65 -11.90,59.53 -12.19,59.42 -12.44,59.21 -12.68,59.01 -12.85,58.74 -13.02,58.46 -13.09,58.15 -13.16,57.84 -13.13,57.52 -13.10,57.21 -12.97,56.92 -12.84,56.62 -12.62,56.39 -12.40,56.16 -12.12,56.00 -11.84,55.85 -11.84,55.85 -11.84,55.85 -10.08,54.68 -8.33,53.52 -7.62,52.72 -6.90,51.92 -6.62,49.27 -6.34,46.63 -5.68,43.27 -5.02,39.91 -4.77,35.80 -4.52,31.69 -3.94,27.65 -3.36,23.62 -3.29,19.31 -3.22,15.01 -3.01,10.21 -2.81,5.42 -2.30,2.53 -1.79,-0.35 -1.72,-0.56 -1.65,-0.77 -1.54,-0.96 -1.42,-1.15 -1.26,-1.30 -1.10,-1.46 -0.91,-1.57 -0.72,-1.68 -0.51,-1.74 -0.30,-1.80 -0.08,-1.81 0.14,-1.82 0.35,-1.78 0.57,-1.74 0.77,-1.64 0.97,-1.55 1.14,-1.41 1.31,-1.27 1.45,-1.09 1.58,-0.92 1.67,-0.72 1.75,-0.51 1.79,-0.29 1.83,-0.08 1.81,0.13 1.79,0.35 1.79,0.35 L 1.79,0.35 Z"/></g><g transform="translate(174 226.20416456653226) rotate(0 14 -3)" stroke="none"><path fill="#1e1e1e" d="M -0.60,-1.80 Q -0.60,-1.80 2.87,-2.87 6.34,-3.95 9.56,-4.96 12.77,-5.97 17.17,-6.41 21.58,-6.86 23.37,-7.09 25.16,-7.32 25.43,-7.31 25.69,-7.29 25.93,-7.19 26.17,-7.10 26.37,-6.93 26.57,-6.76 26.71,-6.53 26.84,-6.31 26.90,-6.05 26.95,-5.80 26.92,-5.54 26.90,-5.27 26.79,-5.04 26.67,-4.80 26.49,-4.61 26.31,-4.42 26.08,-4.30 25.85,-4.18 25.59,-4.13 25.33,-4.09 25.08,-4.14 24.82,-4.18 24.59,-4.30 24.35,-4.42 24.17,-4.61 23.99,-4.81 23.89,-5.04 23.78,-5.28 23.75,-5.54 23.72,-5.80 23.78,-6.06 23.83,-6.31 23.97,-6.54 24.11,-6.76 24.30,-6.93 24.50,-7.10 24.75,-7.20 24.99,-7.29 25.25,-7.31 25.52,-7.32 25.77,-7.25 26.02,-7.18 26.24,-7.03 26.45,-6.88 26.61,-6.68 26.77,-6.47 26.85,-6.22 26.93,-5.97 26.93,-5.71 26.93,-5.45 26.85,-5.20 26.77,-4.95 26.61,-4.74 26.45,-4.53 26.23,-4.39 26.01,-4.24 25.76,-4.17 25.51,-4.10 25.51,-4.10 25.51,-4.10 23.71,-3.95 21.90,-3.79 17.84,-3.34 13.78,-2.88 10.62,-1.76 7.45,-0.64 4.02,0.57 0.60,1.80 0.37,1.85 0.15,1.89 -0.07,1.88 -0.30,1.87 -0.52,1.81 -0.74,1.74 -0.94,1.63 -1.14,1.52 -1.30,1.36 -1.47,1.20 -1.59,1.00 -1.71,0.81 -1.79,0.59 -1.86,0.37 -1.88,0.15 -1.90,-0.07 -1.86,-0.30 -1.82,-0.53 -1.73,-0.74 -1.64,-0.95 -1.50,-1.13 -1.37,-1.31 -1.19,-1.46 -1.01,-1.60 -0.80,-1.70 -0.60,-1.80 -0.60,-1.80 L -0.60,-1.80 Z"/></g><g transform="translate(282 214.20416456653226) rotate(0 22 -10)" stroke="none"><path fill="#1e1e1e" d="M -0.45,-1.83 Q -0.45,-1.83 1.84,-2.32 4.14,-2.81 7.78,-5.20 11.41,-7.59 14.79,-9.78 18.17,-11.97 20.64,-14.52 23.12,-17.07 24.74,-19.26 26.37,-21.46 27.63,-23.52 28.90,-25.58 30.02,-27.14 31.14,-28.70 31.54,-29.98 31.93,-31.25 32.07,-31.40 32.22,-31.55 32.39,-31.65 32.57,-31.76 32.76,-31.83 32.96,-31.89 33.16,-31.91 33.37,-31.92 33.57,-31.89 33.77,-31.85 33.96,-31.77 34.15,-31.69 34.32,-31.57 34.48,-31.44 34.61,-31.28 34.74,-31.12 34.83,-30.94 34.91,-30.75 34.95,-30.55 34.99,-30.35 34.98,-30.14 34.97,-29.93 34.92,-29.74 34.86,-29.54 34.75,-29.36 34.65,-29.18 35.90,-27.20 37.15,-25.22 37.80,-22.72 38.45,-20.22 38.74,-16.68 39.04,-13.15 39.70,-10.07 40.37,-6.99 41.22,-3.35 42.08,0.28 42.99,2.91 43.90,5.55 44.87,6.98 45.84,8.41 46.07,8.50 46.30,8.59 46.48,8.75 46.67,8.90 46.80,9.11 46.93,9.32 46.98,9.56 47.04,9.80 47.01,10.04 46.99,10.29 46.89,10.51 46.79,10.74 46.62,10.91 46.45,11.09 46.24,11.21 46.02,11.33 45.78,11.37 45.54,11.41 45.30,11.37 45.06,11.34 44.84,11.22 44.62,11.11 44.45,10.93 44.28,10.76 44.17,10.54 44.07,10.32 44.04,10.07 44.01,9.83 44.06,9.59 44.11,9.35 44.24,9.14 44.36,8.93 44.55,8.77 44.73,8.60 44.96,8.51 45.19,8.42 45.43,8.40 45.68,8.39 45.91,8.45 46.15,8.52 46.35,8.65 46.56,8.79 46.71,8.98 46.86,9.17 46.94,9.41 47.02,9.64 47.02,9.88 47.02,10.13 46.95,10.36 46.87,10.59 46.72,10.79 46.58,10.99 46.38,11.13 46.17,11.27 45.94,11.33 45.70,11.40 45.46,11.39 45.21,11.38 45.21,11.38 45.21,11.38 43.25,8.92 41.29,6.46 40.31,3.70 39.33,0.93 38.43,-2.71 37.54,-6.36 36.80,-9.62 36.05,-12.88 35.74,-16.13 35.42,-19.38 34.64,-22.03 33.86,-24.67 33.73,-26.27 33.60,-27.87 32.77,-29.56 31.93,-31.25 32.07,-31.40 32.22,-31.54 32.39,-31.65 32.57,-31.76 32.76,-31.83 32.96,-31.89 33.16,-31.91 33.37,-31.92 33.57,-31.89 33.77,-31.85 33.96,-31.77 34.15,-31.69 34.32,-31.57 34.48,-31.44 34.61,-31.28 34.74,-31.12 34.83,-30.94 34.91,-30.75 34.95,-30.55 34.99,-30.35 34.98,-30.14 34.97,-29.94 34.92,-29.74 34.86,-29.54 34.75,-29.36 34.65,-29.18 34.09,-28.05 33.53,-26.92 32.41,-25.53 31.29,-24.13 29.99,-21.95 28.68,-19.77 26.96,-17.40 25.25,-15.02 22.56,-12.22 19.88,-9.42 16.54,-7.15 13.19,-4.88 9.12,-2.18 5.05,0.51 2.75,1.17 0.45,1.83 0.23,1.86 0.00,1.88 -0.21,1.86 -0.44,1.83 -0.65,1.75 -0.87,1.67 -1.06,1.54 -1.24,1.41 -1.40,1.24 -1.55,1.07 -1.65,0.87 -1.76,0.67 -1.82,0.45 -1.87,0.23 -1.87,0.00 -1.87,-0.22 -1.82,-0.44 -1.76,-0.66 -1.66,-0.86 -1.55,-1.06 -1.40,-1.23 -1.25,-1.41 -1.07,-1.54 -0.88,-1.67 -0.67,-1.75 -0.45,-1.83 -0.45,-1.83 L -0.45,-1.83 Z"/></g><g transform="translate(328 260.20416456653226) rotate(0 23 0)" stroke="none"><path fill="#1e1e1e" d="M 0,-1.75 Q 0,-1.75 2.3,-1.69 4.6,-1.63 7.87,-1.58 11.15,-1.54 14.27,-1.51 17.39,-1.48 21.01,-1.45 24.64,-1.43 28.48,-1.41 32.32,-1.40 35.67,-1.39 39.03,-1.37 41.43,-1.40 43.82,-1.43 44.05,-1.39 44.28,-1.35 44.48,-1.24 44.69,-1.13 44.85,-0.97 45.01,-0.80 45.10,-0.59 45.20,-0.38 45.23,-0.15 45.25,0.07 45.20,0.30 45.15,0.52 45.03,0.72 44.91,0.92 44.74,1.07 44.56,1.22 44.34,1.31 44.13,1.39 43.90,1.41 43.67,1.42 43.44,1.36 43.22,1.29 43.03,1.16 42.84,1.03 42.70,0.85 42.56,0.67 42.48,0.45 42.41,0.23 42.41,-0.00 42.41,-0.23 42.48,-0.45 42.56,-0.67 42.70,-0.85 42.84,-1.03 43.03,-1.16 43.22,-1.29 43.44,-1.36 43.67,-1.42 43.90,-1.41 44.13,-1.39 44.34,-1.31 44.56,-1.22 44.74,-1.07 44.91,-0.92 45.03,-0.72 45.15,-0.52 45.20,-0.30 45.25,-0.07 45.23,0.15 45.20,0.38 45.10,0.59 45.01,0.80 44.85,0.97 44.69,1.13 44.48,1.24 44.28,1.35 44.05,1.39 43.82,1.43 43.82,1.43 43.82,1.43 41.43,1.40 39.03,1.37 35.67,1.39 32.32,1.40 28.48,1.41 24.64,1.43 21.01,1.45 17.39,1.48 14.27,1.51 11.15,1.54 7.87,1.58 4.6,1.63 2.3,1.69 0,1.75 -0.20,1.72 -0.41,1.70 -0.61,1.62 -0.81,1.55 -0.98,1.43 -1.16,1.31 -1.30,1.15 -1.44,0.99 -1.53,0.80 -1.63,0.62 -1.68,0.41 -1.73,0.21 -1.73,-0.00 -1.73,-0.21 -1.68,-0.41 -1.63,-0.62 -1.53,-0.80 -1.44,-0.99 -1.30,-1.15 -1.16,-1.31 -0.98,-1.43 -0.81,-1.55 -0.61,-1.62 -0.41,-1.70 -0.20,-1.72 0.00,-1.75 0.00,-1.75 L 0,-1.75 Z"/></g><g transform="translate(368 220.20416456653226) rotate(0 17 -5)" stroke="none"><path fill="#1e1e1e" d="M -0.63,-1.90 Q -0.63,-1.90 1.09,-2.45 2.81,-3.01 3.89,-3.76 4.98,-4.51 6.62,-5.84 8.26,-7.16 10.15,-8.87 12.05,-10.58 13.39,-11.87 14.74,-13.17 15.11,-14.59 15.49,-16.01 16.37,-17.95 17.26,-19.88 17.49,-21.14 17.71,-22.41 17.78,-23.59 17.85,-24.77 17.93,-25.00 18.02,-25.22 18.16,-25.42 18.30,-25.61 18.48,-25.77 18.66,-25.93 18.87,-26.04 19.08,-26.15 19.32,-26.20 19.55,-26.26 19.79,-26.26 20.03,-26.26 20.26,-26.20 20.50,-26.14 20.71,-26.02 20.92,-25.91 21.10,-25.75 21.27,-25.59 21.41,-25.39 21.54,-25.19 21.63,-24.97 21.71,-24.74 21.74,-24.50 21.76,-24.27 21.73,-24.03 21.70,-23.79 23.31,-22.40 24.93,-21.01 25.28,-18.97 25.64,-16.94 26.22,-15.21 26.79,-13.48 28.10,-11.05 29.40,-8.62 30.55,-6.34 31.70,-4.06 32.77,-1.30 33.85,1.46 34.38,3.25 34.91,5.04 35.14,7.05 35.37,9.05 35.59,11.87 35.81,14.69 35.78,14.99 35.74,15.29 35.61,15.57 35.48,15.84 35.27,16.06 35.06,16.27 34.79,16.41 34.52,16.55 34.22,16.60 33.92,16.64 33.62,16.59 33.33,16.54 33.06,16.39 32.79,16.25 32.59,16.02 32.38,15.80 32.26,15.53 32.14,15.25 32.11,14.95 32.08,14.65 32.15,14.35 32.21,14.06 32.37,13.80 32.53,13.54 32.76,13.35 33.00,13.16 33.28,13.05 33.56,12.94 33.86,12.93 34.17,12.91 34.46,13.00 34.75,13.08 35.00,13.26 35.24,13.43 35.43,13.67 35.61,13.91 35.70,14.20 35.79,14.49 35.79,14.79 35.78,15.10 35.68,15.38 35.58,15.67 35.40,15.91 35.21,16.14 34.96,16.31 34.71,16.48 34.42,16.56 34.12,16.63 33.82,16.61 33.52,16.59 33.24,16.48 32.96,16.36 32.73,16.16 32.50,15.97 32.35,15.70 32.20,15.44 32.14,15.15 32.07,14.85 32.07,14.85 32.07,14.85 32.06,12.12 32.05,9.39 31.88,7.64 31.72,5.89 31.34,4.26 30.95,2.63 29.86,0.06 28.77,-2.50 27.54,-4.68 26.31,-6.85 24.72,-9.48 23.13,-12.11 22.31,-14.17 21.48,-16.22 21.25,-17.69 21.02,-19.15 20.54,-20.93 20.05,-22.70 18.95,-23.74 17.85,-24.77 17.93,-25.00 18.02,-25.22 18.16,-25.42 18.30,-25.61 18.48,-25.77 18.66,-25.93 18.87,-26.04 19.08,-26.15 19.32,-26.20 19.55,-26.26 19.79,-26.26 20.03,-26.26 20.26,-26.20 20.49,-26.14 20.71,-26.02 20.92,-25.91 21.10,-25.75 21.27,-25.59 21.41,-25.39 21.54,-25.19 21.63,-24.97 21.71,-24.74 21.74,-24.51 21.76,-24.27 21.73,-24.03 21.70,-23.79 21.47,-22.65 21.24,-21.52 20.77,-20.04 20.30,-18.55 19.54,-16.73 18.78,-14.90 17.99,-12.89 17.20,-10.88 15.80,-9.50 14.40,-8.12 12.54,-6.26 10.69,-4.40 8.92,-2.73 7.15,-1.06 5.61,-0.17 4.08,0.71 2.35,1.30 0.63,1.90 0.39,1.94 0.16,1.99 -0.08,1.98 -0.32,1.97 -0.55,1.91 -0.78,1.84 -0.99,1.72 -1.20,1.60 -1.37,1.43 -1.55,1.26 -1.68,1.06 -1.81,0.85 -1.88,0.62 -1.96,0.39 -1.98,0.15 -2.00,-0.08 -1.96,-0.32 -1.92,-0.55 -1.82,-0.78 -1.73,-1.00 -1.58,-1.19 -1.44,-1.38 -1.25,-1.54 -1.06,-1.69 -0.85,-1.79 -0.63,-1.90 -0.63,-1.90 L -0.63,-1.90 Z"/></g><g transform="translate(137.375 293.54986769153226) rotate(0 17.5 8.125)" stroke="none"><path fill="#1e1e1e" d="M 1.94,-0.77 Q 1.94,-0.77 3.28,2.85 4.62,6.48 5.53,9.14 6.43,11.79 7.17,13.59 7.91,15.39 8.62,16.37 9.32,17.36 8.74,18.25 8.15,19.15 9.30,17.15 10.46,15.16 11.23,13.51 12.00,11.86 12.29,10.24 12.58,8.62 13.09,6.96 13.61,5.30 13.76,5.02 13.92,4.74 14.03,4.51 14.14,4.28 14.30,4.08 14.46,3.88 14.66,3.72 14.87,3.57 15.10,3.47 15.34,3.37 15.59,3.33 15.84,3.29 16.10,3.31 16.35,3.33 16.60,3.41 16.84,3.49 17.06,3.62 17.27,3.76 17.45,3.94 17.63,4.13 17.76,4.35 17.88,4.57 17.95,4.82 18.03,5.06 18.04,5.32 18.05,5.57 18.00,5.82 17.95,6.08 18.71,7.09 19.47,8.11 19.88,9.49 20.29,10.88 21.08,12.49 21.86,14.11 23.07,14.34 24.27,14.57 25.44,12.89 26.60,11.21 27.22,9.95 27.84,8.68 28.54,7.06 29.25,5.44 30.00,3.40 30.75,1.36 31.00,-0.16 31.25,-1.68 31.94,-3.47 32.64,-5.25 32.84,-5.56 33.04,-5.86 33.33,-6.08 33.62,-6.31 33.96,-6.43 34.31,-6.55 34.67,-6.55 35.04,-6.56 35.38,-6.44 35.73,-6.33 36.02,-6.12 36.31,-5.90 36.52,-5.60 36.73,-5.30 36.83,-4.95 36.93,-4.60 36.92,-4.24 36.90,-3.87 36.77,-3.53 36.64,-3.19 36.41,-2.91 36.17,-2.63 35.86,-2.44 35.55,-2.25 35.20,-2.17 34.84,-2.08 34.48,-2.12 34.12,-2.15 33.79,-2.30 33.45,-2.45 33.19,-2.70 32.92,-2.95 32.75,-3.27 32.57,-3.59 32.51,-3.95 32.45,-4.31 32.50,-4.67 32.55,-5.03 32.72,-5.35 32.89,-5.67 33.15,-5.93 33.41,-6.18 33.74,-6.34 34.07,-6.49 34.43,-6.54 34.79,-6.58 35.15,-6.51 35.51,-6.43 35.82,-6.25 36.14,-6.06 36.37,-5.79 36.61,-5.51 36.75,-5.18 36.89,-4.84 36.91,-4.48 36.94,-4.11 36.84,-3.76 36.75,-3.41 36.75,-3.41 36.75,-3.41 36.10,-2.18 35.44,-0.95 35.15,0.80 34.86,2.56 34.33,4.86 33.80,7.16 33.20,9.00 32.60,10.84 31.83,12.65 31.06,14.45 30.05,15.78 29.05,17.11 27.68,18.17 26.32,19.23 24.91,19.51 23.51,19.79 22.32,19.44 21.13,19.09 20.09,18.47 19.05,17.86 18.07,16.26 17.08,14.67 16.49,13.44 15.89,12.20 15.47,10.01 15.05,7.82 14.48,6.28 13.92,4.74 14.03,4.51 14.14,4.28 14.30,4.08 14.46,3.88 14.66,3.72 14.87,3.57 15.10,3.47 15.34,3.37 15.59,3.33 15.84,3.29 16.10,3.31 16.35,3.33 16.60,3.41 16.84,3.49 17.05,3.62 17.27,3.76 17.45,3.94 17.63,4.13 17.75,4.35 17.88,4.57 17.95,4.82 18.03,5.06 18.04,5.32 18.05,5.57 18.00,5.82 17.95,6.07 17.68,6.35 17.41,6.63 16.93,7.97 16.45,9.31 16.09,11.37 15.73,13.43 14.96,15.36 14.20,17.29 12.30,19.79 10.41,22.29 8.27,20.78 6.13,19.27 5.47,17.99 4.80,16.71 3.99,14.85 3.19,13.00 2.16,10.44 1.12,7.88 -0.40,4.33 -1.94,0.77 -2.00,0.53 -2.07,0.28 -2.07,0.03 -2.07,-0.21 -2.02,-0.46 -1.96,-0.70 -1.85,-0.93 -1.74,-1.15 -1.57,-1.34 -1.41,-1.53 -1.20,-1.68 -1.00,-1.83 -0.77,-1.92 -0.53,-2.02 -0.28,-2.05 -0.03,-2.08 0.21,-2.06 0.46,-2.03 0.70,-1.95 0.93,-1.86 1.14,-1.72 1.35,-1.58 1.52,-1.40 1.69,-1.21 1.81,-0.99 1.94,-0.77 1.94,-0.77 L 1.94,-0.77 Z"/></g><g transform="translate(189.875 296.04986769153226) rotate(0 -8.75 6.875)" stroke="none"><path fill="#1e1e1e" d="M -0.57,2.28 Q -0.57,2.28 -2.00,1.92 -3.44,1.57 -4.62,1.46 -5.80,1.36 -7.01,1.33 -8.22,1.29 -9.78,1.23 -11.34,1.18 -12.24,2.01 -13.14,2.85 -13.75,5.04 -14.36,7.24 -14.58,8.72 -14.81,10.19 -14.55,11.29 -14.29,12.39 -13.30,13.38 -12.30,14.37 -10.62,14.53 -8.95,14.68 -7.17,14.71 -5.39,14.74 -4.25,13.22 -3.12,11.70 -3.01,9.43 -2.90,7.15 -3.34,4.68 -3.77,2.21 -3.80,0.98 -3.82,-0.25 -3.55,0.08 -3.27,0.43 -3.44,0.13 -3.60,-0.17 -3.69,-0.50 -3.78,-0.83 -3.78,-1.17 -3.79,-1.52 -3.71,-1.85 -3.64,-2.19 -3.48,-2.49 -3.33,-2.80 -3.10,-3.06 -2.88,-3.32 -2.60,-3.52 -2.32,-3.72 -2.00,-3.85 -1.68,-3.97 -1.34,-4.02 -1.00,-4.07 -0.66,-4.03 -0.32,-4.00 0.00,-3.88 0.32,-3.76 0.61,-3.57 0.89,-3.38 1.12,-3.13 1.35,-2.87 1.54,-2.52 1.72,-2.17 1.80,-1.72 1.89,-1.26 1.82,-0.81 1.75,-0.35 1.54,0.05 1.33,0.46 1.00,0.78 0.67,1.11 0.25,1.31 -0.15,1.51 -0.61,1.56 -1.07,1.62 -1.52,1.53 -1.97,1.43 -2.37,1.20 -2.77,0.97 -3.07,0.62 -3.37,0.28 -3.55,-0.14 -3.73,-0.56 -3.76,-1.02 -3.79,-1.48 -3.68,-1.93 -3.56,-2.38 -3.31,-2.76 -3.05,-3.15 -2.69,-3.43 -2.33,-3.72 -1.89,-3.87 -1.46,-4.02 -1.00,-4.03 -0.54,-4.04 -0.10,-3.90 0.33,-3.76 0.70,-3.48 1.08,-3.21 1.34,-2.83 1.60,-2.45 1.73,-2.01 1.86,-1.57 1.85,-1.11 1.83,-0.65 1.66,-0.22 1.50,0.20 1.21,0.56 0.91,0.92 0.52,1.16 0.13,1.40 -0.31,1.51 -0.76,1.61 -1.22,1.57 -1.68,1.53 -2.10,1.34 -2.52,1.15 -2.86,0.84 -3.20,0.53 -3.24,0.48 -3.27,0.43 -3.44,0.13 -3.60,-0.17 -3.69,-0.50 -3.78,-0.83 -3.78,-1.17 -3.79,-1.52 -3.71,-1.85 -3.64,-2.19 -3.48,-2.49 -3.33,-2.80 -3.10,-3.06 -2.88,-3.32 -2.60,-3.52 -2.32,-3.72 -2.00,-3.85 -1.68,-3.97 -1.34,-4.02 -1.00,-4.07 -0.66,-4.03 -0.32,-4.00 0.00,-3.88 0.32,-3.76 0.61,-3.57 0.89,-3.38 1.12,-3.13 1.35,-2.88 0.87,-3.08 0.39,-3.28 0.94,-2.13 1.50,-0.98 1.60,0.31 1.70,1.61 1.82,2.72 1.94,3.84 2.34,5.56 2.75,7.28 2.74,8.93 2.73,10.57 2.51,11.95 2.28,13.33 1.08,15.07 -0.11,16.81 -1.30,18.03 -2.49,19.24 -3.90,19.71 -5.31,20.18 -7.44,20.04 -9.56,19.89 -10.96,19.69 -12.37,19.49 -13.89,18.91 -15.41,18.33 -16.64,17.14 -17.87,15.95 -18.43,14.63 -18.99,13.30 -19.27,11.49 -19.55,9.67 -19.34,7.68 -19.13,5.70 -18.67,4.15 -18.21,2.61 -17.59,1.09 -16.97,-0.41 -15.66,-1.60 -14.35,-2.78 -12.85,-3.19 -11.35,-3.59 -9.66,-3.60 -7.97,-3.60 -6.61,-3.51 -5.26,-3.41 -3.78,-3.21 -2.30,-3.00 -0.86,-2.64 0.57,-2.28 0.83,-2.18 1.09,-2.07 1.33,-1.91 1.56,-1.75 1.75,-1.54 1.94,-1.32 2.07,-1.07 2.20,-0.82 2.26,-0.55 2.33,-0.27 2.33,0.00 2.33,0.29 2.26,0.56 2.19,0.84 2.06,1.09 1.93,1.34 1.74,1.55 1.55,1.76 1.31,1.92 1.08,2.08 0.82,2.18 0.55,2.28 0.27,2.31 -0.00,2.35 -0.28,2.31 -0.57,2.28 -0.57,2.28 L -0.57,2.28 Z"/></g><g transform="translate(201.125 299.79986769153226) rotate(0 17.5 10)" stroke="none"><path fill="#1e1e1e" d="M 2.46,0 Q 2.46,0 2.40,1.79 2.33,3.58 2.60,5.22 2.87,6.85 3.05,8.45 3.24,10.04 3.64,11.17 4.04,12.30 4.81,13.84 5.59,15.37 6.43,14.42 7.26,13.47 7.75,12.53 8.23,11.58 8.25,10.76 8.26,9.93 8.42,9.60 8.58,9.28 8.81,9.00 9.04,8.72 9.33,8.50 9.63,8.29 9.96,8.15 10.30,8.01 10.66,7.95 11.02,7.90 11.38,7.93 11.74,7.96 12.09,8.08 12.43,8.20 12.74,8.40 13.04,8.59 13.29,8.86 13.54,9.12 13.72,9.44 13.90,9.76 14.00,10.11 14.09,10.46 14.11,10.82 14.12,11.18 14.04,11.54 13.97,11.89 13.92,10.67 13.87,9.45 14.55,10.70 15.22,11.96 15.57,13.25 15.91,14.55 16.58,16.03 17.25,17.50 18.17,18.80 19.08,20.10 20.37,21.34 21.66,22.58 22.94,23.07 24.22,23.55 24.24,22.44 24.27,21.32 24.95,19.67 25.64,18.02 26.36,15.63 27.08,13.25 27.80,10.76 28.52,8.26 29.60,5.34 30.68,2.43 31.47,0.74 32.26,-0.94 32.59,-3.46 32.92,-5.98 33.00,-6.30 33.08,-6.62 33.26,-6.90 33.44,-7.18 33.70,-7.38 33.96,-7.59 34.27,-7.70 34.58,-7.81 34.91,-7.82 35.24,-7.83 35.56,-7.73 35.87,-7.63 36.14,-7.44 36.41,-7.24 36.60,-6.98 36.79,-6.71 36.89,-6.39 36.98,-6.07 36.97,-5.74 36.96,-5.41 36.85,-5.10 36.73,-4.79 36.52,-4.54 36.31,-4.28 36.04,-4.10 35.76,-3.93 35.44,-3.85 35.11,-3.77 34.79,-3.80 34.46,-3.83 34.15,-3.96 33.85,-4.09 33.61,-4.31 33.36,-4.53 33.20,-4.82 33.04,-5.11 32.98,-5.44 32.92,-5.76 32.96,-6.09 33.01,-6.41 33.16,-6.71 33.30,-7.01 33.54,-7.24 33.77,-7.47 34.07,-7.62 34.37,-7.76 34.69,-7.80 35.02,-7.85 35.35,-7.78 35.67,-7.72 35.96,-7.56 36.24,-7.39 36.46,-7.15 36.68,-6.90 36.81,-6.59 36.94,-6.29 36.97,-5.96 36.99,-5.63 36.99,-5.63 36.99,-5.63 36.68,-3.63 36.36,-1.63 35.89,-0.51 35.43,0.60 34.66,2.07 33.90,3.54 33.01,6.35 32.11,9.16 31.58,11.70 31.05,14.24 30.51,16.92 29.97,19.60 29.38,21.42 28.79,23.24 27.68,25.29 26.56,27.33 25.00,27.78 23.43,28.23 22.28,27.84 21.12,27.46 19.94,26.72 18.76,25.99 16.96,24.57 15.15,23.16 13.86,21.60 12.57,20.04 11.43,18.17 10.30,16.30 10.12,14.53 9.95,12.76 9.10,11.34 8.26,9.93 8.42,9.60 8.58,9.28 8.81,9.00 9.04,8.72 9.33,8.50 9.63,8.29 9.96,8.15 10.30,8.01 10.66,7.95 11.02,7.90 11.38,7.93 11.74,7.96 12.09,8.08 12.43,8.20 12.74,8.40 13.04,8.59 13.29,8.86 13.54,9.12 13.72,9.44 13.90,9.76 14.00,10.11 14.09,10.46 14.11,10.82 14.12,11.18 14.04,11.54 13.97,11.89 13.85,12.50 13.74,13.11 12.86,14.56 11.99,16.01 11.23,16.98 10.47,17.96 9.32,18.62 8.18,19.28 6.59,19.58 5.00,19.88 3.94,19.52 2.89,19.16 1.88,17.60 0.88,16.04 0.29,14.86 -0.29,13.68 -0.74,12.10 -1.19,10.51 -1.31,9.10 -1.43,7.69 -1.88,5.64 -2.33,3.60 -2.40,1.80 -2.46,0 -2.42,-0.29 -2.39,-0.59 -2.28,-0.86 -2.18,-1.14 -2.01,-1.39 -1.84,-1.63 -1.62,-1.83 -1.40,-2.02 -1.13,-2.16 -0.87,-2.30 -0.58,-2.37 -0.29,-2.44 0.00,-2.44 0.29,-2.44 0.58,-2.37 0.87,-2.30 1.13,-2.16 1.40,-2.02 1.62,-1.83 1.84,-1.63 2.01,-1.39 2.18,-1.14 2.28,-0.86 2.39,-0.58 2.42,-0.29 2.46,0.00 2.46,0.00 L 2.46,0 Z"/></g><g transform="translate(202.03225806451613 26.774193548387075) rotate(0 -2.5806451612903203 0)" stroke="none"><path fill="#1e1e1e" d="M 0,2.30 Q 0,2.30 -0.63,2.36 -1.26,2.42 -1.55,2.38 -1.84,2.35 -2.11,2.24 -2.38,2.14 -2.62,1.97 -2.86,1.81 -3.06,1.59 -3.25,1.37 -3.38,1.11 -3.52,0.85 -3.59,0.57 -3.66,0.29 -3.66,-0.00 -3.66,-0.29 -3.59,-0.57 -3.52,-0.85 -3.38,-1.11 -3.25,-1.37 -3.06,-1.59 -2.86,-1.81 -2.62,-1.97 -2.38,-2.14 -2.11,-2.24 -1.84,-2.35 -1.55,-2.38 -1.26,-2.42 -0.87,-2.35 -0.48,-2.29 -0.14,-2.11 0.20,-1.92 0.47,-1.64 0.74,-1.35 0.90,-1.00 1.07,-0.64 1.11,-0.25 1.15,0.13 1.07,0.51 0.98,0.89 0.78,1.23 0.58,1.56 0.28,1.82 -0.01,2.07 -0.37,2.21 -0.74,2.36 -1.13,2.38 -1.52,2.40 -1.90,2.30 -2.27,2.19 -2.60,1.97 -2.92,1.75 -3.16,1.44 -3.40,1.13 -3.52,0.76 -3.65,0.39 -3.65,-0.00 -3.65,-0.39 -3.52,-0.76 -3.40,-1.13 -3.16,-1.44 -2.92,-1.75 -2.60,-1.97 -2.27,-2.19 -1.90,-2.30 -1.52,-2.40 -1.13,-2.38 -0.74,-2.36 -0.37,-2.21 -0.01,-2.07 0.28,-1.82 0.58,-1.56 0.78,-1.23 0.98,-0.89 1.07,-0.51 1.15,-0.13 1.11,0.25 1.07,0.64 0.90,1.00 0.74,1.35 0.47,1.64 0.20,1.92 -0.14,2.11 -0.48,2.29 -0.87,2.35 -1.26,2.42 -1.26,2.42 -1.26,2.42 -1.55,2.38 -1.84,2.35 -2.11,2.24 -2.38,2.14 -2.62,1.97 -2.86,1.81 -3.06,1.59 -3.25,1.37 -3.38,1.11 -3.52,0.85 -3.59,0.57 -3.66,0.29 -3.66,0.00 -3.66,-0.29 -3.59,-0.57 -3.52,-0.85 -3.38,-1.11 -3.25,-1.37 -3.06,-1.59 -2.86,-1.81 -2.62,-1.97 -2.38,-2.14 -2.11,-2.24 -1.84,-2.35 -1.55,-2.38 -1.26,-2.42 -0.63,-2.36 0,-2.30 0.27,-2.26 0.55,-2.23 0.81,-2.13 1.06,-2.03 1.29,-1.88 1.52,-1.72 1.71,-1.51 1.89,-1.30 2.02,-1.06 2.15,-0.81 2.21,-0.54 2.28,-0.27 2.28,0.00 2.28,0.27 2.21,0.54 2.15,0.81 2.02,1.06 1.89,1.30 1.71,1.51 1.52,1.72 1.29,1.88 1.06,2.03 0.81,2.13 0.55,2.23 0.27,2.26 -0.00,2.30 -0.00,2.30 L 0,2.30 Z"/></g><g transform="translate(115.58064516129032 17.741935483870975) rotate(0 14.193548387096776 -3.8709677419354875)" stroke="none"><path fill="#1e1e1e" d="M -1.06,-1.76 Q -1.06,-1.76 0.84,-2.79 2.75,-3.82 4.78,-4.66 6.80,-5.50 9.20,-6.21 11.60,-6.92 13.82,-7.22 16.04,-7.52 18.10,-7.65 20.16,-7.79 21.59,-8.25 23.02,-8.72 25.36,-9.10 27.70,-9.47 27.99,-9.45 28.28,-9.43 28.55,-9.32 28.82,-9.21 29.03,-9.02 29.25,-8.83 29.40,-8.58 29.54,-8.33 29.60,-8.04 29.66,-7.76 29.63,-7.47 29.59,-7.18 29.46,-6.92 29.34,-6.66 29.14,-6.45 28.93,-6.25 28.68,-6.11 28.42,-5.98 28.13,-5.94 27.84,-5.90 27.56,-5.95 27.27,-6.00 27.02,-6.14 26.76,-6.28 26.57,-6.49 26.37,-6.70 26.25,-6.97 26.13,-7.23 26.11,-7.52 26.08,-7.81 26.15,-8.09 26.21,-8.38 26.37,-8.62 26.52,-8.87 26.74,-9.05 26.97,-9.24 27.24,-9.34 27.51,-9.45 27.80,-9.46 28.09,-9.47 28.37,-9.39 28.65,-9.31 28.88,-9.14 29.12,-8.97 29.29,-8.74 29.47,-8.51 29.55,-8.23 29.64,-7.95 29.64,-7.66 29.63,-7.37 29.54,-7.10 29.44,-6.83 29.26,-6.60 29.08,-6.37 28.84,-6.21 28.60,-6.05 28.32,-5.98 28.04,-5.90 28.04,-5.90 28.04,-5.90 25.96,-5.70 23.88,-5.49 22.13,-5.10 20.37,-4.71 18.43,-4.59 16.49,-4.46 14.54,-4.14 12.58,-3.82 10.40,-3.07 8.21,-2.32 6.44,-1.47 4.66,-0.62 2.86,0.56 1.06,1.76 0.83,1.86 0.60,1.97 0.36,2.01 0.11,2.05 -0.13,2.04 -0.37,2.02 -0.61,1.95 -0.85,1.87 -1.06,1.74 -1.27,1.61 -1.45,1.44 -1.62,1.26 -1.75,1.05 -1.88,0.83 -1.95,0.60 -2.02,0.36 -2.04,0.11 -2.05,-0.13 -2.01,-0.37 -1.96,-0.61 -1.86,-0.84 -1.76,-1.07 -1.60,-1.26 -1.45,-1.46 -1.25,-1.61 -1.06,-1.76 -1.06,-1.76 L -1.06,-1.76 Z"/></g></svg>